<?xml version="1.0" encoding="UTF-8"?>
<svg width="16px" height="14px" viewBox="0 0 16 14" version="1.1" xmlns="http://www.w3.org/2000/svg" xmlns:xlink="http://www.w3.org/1999/xlink" xmlns:sketch="http://www.bohemiancoding.com/sketch/ns">
    <title>Slice 1</title>
    <description>Created with Sketch (http://www.bohemiancoding.com/sketch)</description>
    <defs></defs>
    <g id="Page-1" stroke="none" stroke-width="1" fill="none" fill-rule="evenodd" sketch:type="MSPage">
        <g id="gem" sketch:type="MSLayerGroup" fill="#000000">
            <path d="M15.9698049,4.43705338 C15.9619024,4.38503915 15.9457561,4.334121 15.9260976,4.28509609 C15.9217073,4.27448399 15.9217073,4.2636726 15.9170244,4.25291103 C15.916439,4.25231317 15.915561,4.25111744 15.9152683,4.25051957 C15.9152683,4.24932384 15.9146829,4.24872598 15.9140976,4.24797865 L14.1472195,0.416163701 C14.143122,0.407345196 14.1355122,0.399423488 14.1308293,0.390455516 C14.1246829,0.37969395 14.1226341,0.366540925 14.1158537,0.355879004 C14.1023902,0.332562278 14.0839512,0.314427046 14.0680976,0.293651246 C14.052,0.27227758 14.0373171,0.249209964 14.0194634,0.23027758 C13.993122,0.202177936 13.9629268,0.178213523 13.9321951,0.154846975 C13.912878,0.139302491 13.8946829,0.122113879 13.8736098,0.109508897 C13.8379024,0.0875373665 13.7992195,0.0718434164 13.7599512,0.0568469751 C13.7403415,0.0492241993 13.7213171,0.0375658363 13.7007805,0.0317366548 C13.6398537,0.0141992883 13.5765854,0.00418505338 13.5109756,0.00418505338 L7.95117073,0.00418505338 L3.098,0.00418505338 C3.03619512,0.00418505338 2.97629268,0.0130035587 2.918,0.0285480427 C2.89765854,0.0340782918 2.87907317,0.0448896797 2.85897561,0.0519145907 C2.82326829,0.0656654804 2.78663415,0.0776725979 2.75312195,0.097252669 C2.73170732,0.109857651 2.71414634,0.126697509 2.69419512,0.140498221 C2.66546341,0.161274021 2.6357561,0.181153025 2.6102439,0.206313167 C2.5922439,0.224398577 2.57790244,0.245772242 2.56190244,0.266149466 C2.54302439,0.288768683 2.52092683,0.309245552 2.5055122,0.334953737 L0.106,4.16686833 C0.0970731707,4.18181495 0.0928292683,4.19875445 0.0847317073,4.21459786 C0.0778536585,4.22715302 0.0664390244,4.23791459 0.0604390244,4.25166548 C0.0541463415,4.26606406 0.0538536585,4.28116014 0.0478536585,4.29491103 C0.0349756098,4.33003559 0.0247317073,4.3650605 0.0166341463,4.4014306 C0.0106341463,4.43027758 0.00551219512,4.45852669 0.00258536585,4.48697509 C-0.000780487805,4.52284698 -0.000487804878,4.55861922 0.00126829268,4.59483986 C0.00346341463,4.62433452 0.00551219512,4.65333096 0.0100487805,4.68202847 C0.0163414634,4.71730249 0.0272195122,4.75038434 0.038195122,4.78436299 C0.0481463415,4.81325979 0.0570731707,4.84210676 0.0704390244,4.86935943 C0.0748292683,4.8787758 0.0767317073,4.88953737 0.0811219512,4.89925267 C0.0937073171,4.92316726 0.112292683,4.94190036 0.127707317,4.96342349 C0.14,4.98210676 0.147463415,5.00173665 0.161512195,5.01847687 L7.414,13.7675801 C7.53907317,13.9183416 7.72653659,14.0254591 7.91341463,14.0200285 C7.9157561,14.0200285 7.91814634,14.0212242 7.91970732,14.0212242 C7.93014634,14.0218221 7.94009756,14.0218221 7.95063415,14.0218221 L7.95092683,14.0218221 L7.95209756,14.0218221 C8.01478049,14.0218221 8.07629268,14.0098648 8.13546341,13.9937224 C8.15302439,13.9880427 8.16887805,13.982363 8.18643902,13.9754875 C8.23009756,13.9599431 8.27258537,13.9390178 8.31297561,13.9144555 C8.32643902,13.9063843 8.34078049,13.8983132 8.354,13.8892954 C8.4017561,13.8554662 8.44653659,13.816605 8.48521951,13.7696726 L15.8121951,5.02071886 C15.8215122,5.00935943 15.8268293,4.99560854 15.8350244,4.98360142 C15.8467317,4.96850534 15.8614146,4.95595018 15.8713659,4.93886121 C15.8819024,4.92197153 15.8871707,4.90298932 15.8959512,4.88490391 C15.9082927,4.86173665 15.9199512,4.83837011 15.9290732,4.81325979 C15.9428293,4.77679004 15.9522439,4.73977224 15.960439,4.70270463 C15.9657073,4.67754448 15.9716098,4.65362989 15.9739024,4.62851957 C15.9785854,4.58721708 15.9768293,4.54696085 15.9739024,4.50600712 C15.9721463,4.48179359 15.9732683,4.45917438 15.9698049,4.43705338 L15.9698049,4.43705338 Z" id="Shape" sketch:type="MSShapeGroup"></path>
        </g>
    </g>
</svg>