<?xml version="1.0" encoding="UTF-8"?>
<svg width="16px" height="16px" viewBox="0 0 16 16" version="1.1" xmlns="http://www.w3.org/2000/svg" xmlns:xlink="http://www.w3.org/1999/xlink" xmlns:sketch="http://www.bohemiancoding.com/sketch/ns">
    <title>hit-int</title>
    <description>Created with Sketch (http://www.bohemiancoding.com/sketch)</description>
    <defs></defs>
    <g id="Page-1" stroke="none" stroke-width="1" fill="none" fill-rule="evenodd" sketch:type="MSPage">
        <path d="M8.33346396,12.244898 L11.6640762,14.0865306 L11.0208109,10.1355102 C10.9881578,9.92653061 11.053464,9.71428571 11.2004027,9.56408163 L13.9595864,6.73632653 L10.1750966,6.15836735 C9.9563211,6.12571429 9.76693334,5.98204082 9.67223947,5.78285714 L8.01019865,2.23673469 L6.34815783,5.77959184 C6.25346396,5.98204082 6.0640762,6.12244898 5.84530069,6.15510204 L2.0608109,6.73306122 L4.81999457,9.56081633 C4.96693334,9.71102041 5.03550477,9.92326531 4.99958641,10.1322449 L4.3563211,14.0832653 L7.68693334,12.2416327 C7.88938232,12.117551 8.16040273,12.1469388 8.33346396,12.244898 L8.33346396,12.244898 Z M12.2191782,15.915102 L8.01019865,13.5902041 L3.80121906,15.9183673 C3.57917824,16.042449 3.30489253,16.0261224 3.09591294,15.8791837 C2.88693334,15.7322449 2.77917824,15.477551 2.82162722,15.2261224 L3.63142314,10.2530612 L0.199586406,6.73306122 C0.0265251817,6.55346939 -0.0355156346,6.2922449 0.0461170185,6.05714286 C0.124484365,5.81877551 0.330198651,5.64571429 0.578361916,5.60979592 L5.29346396,4.88816327 L7.40938232,0.382040816 C7.51713743,0.150204082 7.75223947,1.77635684e-14 8.01019865,1.77635684e-14 C8.26815783,1.77635684e-14 8.50325988,0.150204082 8.61428028,0.382040816 L10.7301987,4.88816327 L15.4453007,5.60979592 C15.693464,5.64897959 15.8959129,5.81877551 15.9775456,6.05714286 C16.0559129,6.2955102 15.9971374,6.55673469 15.8240762,6.73306122 L12.3889742,10.2530612 L13.1987701,15.2261224 C13.2412191,15.477551 13.133464,15.7322449 12.9244844,15.8791837 C12.8101987,15.957551 12.4804027,16.075102 12.2191782,15.915102 L12.2191782,15.915102 Z" id="Shape" fill="#000000" sketch:type="MSShapeGroup"></path>
    </g>
</svg>