<?xml version="1.0" encoding="UTF-8" standalone="no"?>
<svg width="30px" height="29px" viewBox="0 0 30 29" version="1.1" xmlns="http://www.w3.org/2000/svg" xmlns:xlink="http://www.w3.org/1999/xlink" xmlns:sketch="http://www.bohemiancoding.com/sketch/ns">
    <title>Untitled</title>
    <description>Created with Sketch (http://www.bohemiancoding.com/sketch)</description>
    <defs></defs>
    <g id="Page-1" stroke="none" stroke-width="1" fill="none" fill-rule="evenodd" sketch:type="MSPage">
        <path d="M29.9025,10.8713962 C29.8392857,10.6801509 29.6716071,10.5406792 29.4696429,10.5116226 L19.7785714,9.12271698 L15.4446429,0.462792453 C15.3546429,0.282113208 15.1682143,0.168 14.9646429,0.168 C14.7610714,0.168 14.5741071,0.282113208 14.4846429,0.462792453 L10.1501786,9.12324528 L0.459107143,10.5121509 C0.257142857,10.5412075 0.09,10.6801509 0.02625,10.8719245 C-0.0364285714,11.0626415 0.0155357143,11.2729057 0.161785714,11.4129057 L7.17482143,18.1540377 L5.51892857,27.6729811 C5.48464286,27.8710943 5.56714286,28.0713208 5.73160714,28.1896604 C5.89714286,28.3090566 6.11625,28.3243774 6.29571429,28.2298113 L14.9646429,23.7360755 L23.6325,28.2298113 C23.7107143,28.2704906 23.7969643,28.290566 23.8821429,28.290566 C23.9930357,28.290566 24.1033929,28.2567547 24.1971429,28.1896604 C24.3621429,28.0713208 24.4446429,27.8710943 24.4098214,27.6729811 L22.7544643,18.154566 L29.7675,11.4129057 C29.9132143,11.2718491 29.9657143,11.0621132 29.9025,10.8713962 L29.9025,10.8713962 Z" id="Shape" fill="#000000" sketch:type="MSShapeGroup"></path>
    </g>
</svg>