<?xml version="1.0" encoding="UTF-8"?>
<svg width="24px" height="20px" viewBox="0 0 24 20" version="1.1" xmlns="http://www.w3.org/2000/svg" xmlns:xlink="http://www.w3.org/1999/xlink">
    <!-- Generator: Sketch 43.2 (39069) - http://www.bohemiancoding.com/sketch -->
    <title>twitter-icon</title>
    <desc>Created with Sketch.</desc>
    <defs></defs>
    <g id="Page-1" stroke="none" stroke-width="1" fill="none" fill-rule="evenodd">
        <g id="twitter-icon" fill-rule="nonzero" fill="#40A7C7">
            <path d="M7.54752,19.95172 C16.60416,19.95172 21.55776,12.44836 21.55776,5.94147996 C21.55776,5.72835996 21.55776,5.51619996 21.54336,5.30499996 C22.5070381,4.60795438 23.3389013,3.74488418 24,2.75619996 C23.1013239,3.15440966 22.1479961,3.41555546 21.17184,3.53091996 C22.1997542,2.91554273 22.9690786,1.94766106 23.33664,0.807399956 C22.3700712,1.38095706 21.3126203,1.7851715 20.20992,2.00259996 C18.6835995,0.379618464 16.2582906,-0.0176119628 14.2939673,1.03365269 C12.329644,2.08491734 11.314824,4.32323266 11.81856,6.49347996 C7.85941991,6.29499951 4.17069675,4.4249903 1.6704,1.34883996 C0.363477846,3.59873889 1.03102837,6.47702506 3.19488,7.92195996 C2.41127155,7.8987352 1.6447482,7.68734861 0.96,7.30563996 L0.96,7.36803996 C0.960641408,9.71196921 2.61288143,11.7307937 4.9104,12.19492 C4.18547481,12.3926224 3.42487736,12.4215225 2.68704,12.2794 C3.33211001,14.2852459 5.18071158,15.6593525 7.28736,15.69892 C5.54374564,17.0692546 3.38981713,17.8131546 1.17216,17.81092 C0.780387426,17.8101678 0.388995903,17.7864471 0,17.73988 C2.25181051,19.1849455 4.87191687,19.9514482 7.54752,19.94788" id="Shape"></path>
        </g>
    </g>
</svg>