<?xml version="1.0" encoding="UTF-8" standalone="no"?>
<!DOCTYPE svg PUBLIC "-//W3C//DTD SVG 1.1//EN" "http://www.w3.org/Graphics/SVG/1.1/DTD/svg11.dtd">
<svg width="100%" height="100%" viewBox="0 0 24 20" version="1.1" xmlns="http://www.w3.org/2000/svg" xmlns:xlink="http://www.w3.org/1999/xlink" xml:space="preserve" xmlns:serif="http://www.serif.com/" style="fill-rule:evenodd;clip-rule:evenodd;stroke-linejoin:round;stroke-miterlimit:2;">
    <g id="Page-1">
        <g id="twitter-icon">
            <path id="Shape" d="M7.548,19.952C16.604,19.952 21.558,12.448 21.558,5.941C21.558,5.728 21.558,5.516 21.543,5.305C22.507,4.608 23.339,3.745 24,2.756C23.101,3.154 22.148,3.416 21.172,3.531C22.2,2.916 22.969,1.948 23.337,0.807C22.37,1.381 21.313,1.785 20.21,2.003C18.684,0.38 16.258,-0.018 14.294,1.034C12.33,2.085 11.315,4.323 11.819,6.493C7.859,6.295 4.171,4.425 1.67,1.349C0.363,3.599 1.031,6.477 3.195,7.922C2.411,7.899 1.645,7.687 0.96,7.306L0.96,7.368C0.961,9.712 2.613,11.731 4.91,12.195C4.185,12.393 3.425,12.422 2.687,12.279C3.332,14.285 5.181,15.659 7.287,15.699C5.544,17.069 3.39,17.813 1.172,17.811C0.78,17.81 0.389,17.786 0,17.74C2.252,19.185 4.872,19.951 7.548,19.948" style="fill:rgb(69,101,161);fill-rule:nonzero;"/>
        </g>
    </g>
</svg>
